<svg xmlns="http://www.w3.org/2000/svg" xmlns:xlink="http://www.w3.org/1999/xlink" width="176.03" height="84.909" viewBox="0 0 176.03 84.909">
  <defs>
    <clipPath id="clip-path">
      <rect id="Rectangle_264" data-name="Rectangle 264" width="176.03" height="84.909" fill="none"/>
    </clipPath>
  </defs>
  <g id="Groupe_406" data-name="Groupe 406" clip-path="url(#clip-path)">
    <path id="Tracé_212" data-name="Tracé 212" d="M41.7,92.1h4.729v3.14a7.127,7.127,0,0,1,6.13-3.405v4.427c-1.7.038-6.13.3-6.13,5.259v7.983H41.7Z" transform="translate(-14.537 -32.016)" fill="#027d6f"/>
    <path id="Tracé_213" data-name="Tracé 213" d="M60,100.767c0-5.184,3.405-9.044,8.665-9.044,5.184,0,8.362,3.86,8.362,9.044v1.286H64.541a4.306,4.306,0,0,0,4.313,3.745,4.879,4.879,0,0,0,4.125-1.853l3.217,2.346a8.7,8.7,0,0,1-7.341,3.557c-5.335,0-8.854-3.9-8.854-9.08m12.6-1.7c-.416-2.043-1.7-3.594-3.935-3.594a4.045,4.045,0,0,0-4.049,3.594Z" transform="translate(-20.917 -31.976)" fill="#027d6f"/>
    <path id="Tracé_214" data-name="Tracé 214" d="M91.694,116.926l1.8-3.973h3.983a4.383,4.383,0,0,0,4.578-4.654v-.644a6.456,6.456,0,0,1-5.033,2.157c-4.767,0-8.211-3.821-8.211-9s3.443-8.968,8.211-8.968A6.334,6.334,0,0,1,102.053,94V92.1h4.73V108.3c0,4.994-3.292,8.626-9.308,8.626Zm10.359-16.118a4.337,4.337,0,1,0-4.351,4.54,4.264,4.264,0,0,0,4.351-4.54" transform="translate(-30.96 -32.017)" fill="#027d6f"/>
    <path id="Tracé_215" data-name="Tracé 215" d="M120.39,100.767a8.968,8.968,0,1,1,8.967,9.081,8.663,8.663,0,0,1-8.967-9.081m13.28,0a4.319,4.319,0,1,0-4.313,4.54,4.234,4.234,0,0,0,4.313-4.54" transform="translate(-41.97 -31.976)" fill="#027d6f"/>
    <path id="Tracé_216" data-name="Tracé 216" d="M151.924,92.246h4.767l-.038,17.405h-4.73Z" transform="translate(-52.963 -32.158)" fill="#027d6f"/>
    <path id="Tracé_217" data-name="Tracé 217" d="M164.568,92.1h4.73v3.14a7.128,7.128,0,0,1,6.13-3.405v4.427c-1.7.038-6.13.3-6.13,5.259v7.983h-4.73Z" transform="translate(-57.371 -32.016)" fill="#027d6f"/>
    <path id="Tracé_218" data-name="Tracé 218" d="M182.87,100.767c0-5.184,3.405-9.044,8.665-9.044,5.184,0,8.362,3.86,8.362,9.044v1.286H187.41a4.306,4.306,0,0,0,4.313,3.745,4.879,4.879,0,0,0,4.125-1.853l3.217,2.346a8.7,8.7,0,0,1-7.341,3.557c-5.335,0-8.854-3.9-8.854-9.08m12.6-1.7c-.416-2.043-1.7-3.594-3.935-3.594a4.045,4.045,0,0,0-4.049,3.594Z" transform="translate(-63.751 -31.976)" fill="#027d6f"/>
    <path id="Tracé_219" data-name="Tracé 219" d="M151.575,83.788a2.613,2.613,0,0,1,5.222,0,2.611,2.611,0,1,1-5.222,0" transform="translate(-52.841 -28.339)" fill="#027d6f"/>
    <path id="Tracé_220" data-name="Tracé 220" d="M70.057,82.631l-1.688,3.73,6.62-.78,1.825-4.032Z" transform="translate(-23.834 -28.429)" fill="#027d6f"/>
    <path id="Tracé_221" data-name="Tracé 221" d="M14.129,91.756l-2.021,4.465h6.546a6.064,6.064,0,0,1-6.244,4.843c-4.5,0-7.529-3.254-7.529-7.719s3.027-7.719,7.529-7.719a7.576,7.576,0,0,1,4.044,1.132l2.052-4.534a12.664,12.664,0,0,0-6.1-1.479c-7.3,0-12.411,5.3-12.411,12.6s5.108,12.6,12.411,12.6c7.114,0,11.541-5.032,11.805-12.032l-.038-2.157Z" transform="translate(0 -28.149)" fill="#027d6f"/>
    <path id="Tracé_222" data-name="Tracé 222" d="M78.559,47.832h4.73v1.741a6.266,6.266,0,0,1,4.616-2.006,6.087,6.087,0,0,1,5.373,2.649,6.936,6.936,0,0,1,5.713-2.649c3.065,0,6.508,1.589,6.508,7.038V65.237H100.77V55.248c0-3.026-2.157-3.557-3.254-3.557-1.06,0-3.141.53-3.141,3.557v9.989H89.646V55.248c0-3.026-2.119-3.557-3.217-3.557s-3.14.53-3.14,3.557v9.989h-4.73Z" transform="translate(-27.387 -16.583)" fill="#0d576a"/>
    <path id="Tracé_223" data-name="Tracé 223" d="M123.865,56.535c0-5.26,3.48-8.968,8.248-8.968a6.349,6.349,0,0,1,4.995,2.119V47.831h4.73V65.237h-4.73V63.42a6.348,6.348,0,0,1-4.995,2.12c-4.768,0-8.248-3.822-8.248-9.005m13.243,0a4.337,4.337,0,1,0-8.665,0,4.337,4.337,0,1,0,8.665,0" transform="translate(-43.181 -16.583)" fill="#0d576a"/>
    <path id="Tracé_224" data-name="Tracé 224" d="M156.7,47.832h4.73V49.5a6.5,6.5,0,0,1,4.881-1.93c3.141,0,6.773,1.7,6.773,7.038V65.237h-4.73V55.324c0-3.065-2.157-3.785-3.481-3.785-1.362,0-3.443.719-3.443,3.785v9.913H156.7Z" transform="translate(-54.627 -16.583)" fill="#0d576a"/>
    <path id="Tracé_225" data-name="Tracé 225" d="M186.775,58.644V47.974h4.73v9.913c0,3.065,2.157,3.784,3.519,3.784s3.405-.719,3.405-3.784V47.974h4.73V65.379h-4.73V63.79a6.516,6.516,0,0,1-4.843,1.892c-3.14,0-6.811-1.7-6.811-7.038" transform="translate(-65.112 -16.724)" fill="#0d576a"/>
    <path id="Tracé_226" data-name="Tracé 226" d="M215.916,56.495c0-5.184,3.405-9.044,8.665-9.044,5.184,0,8.362,3.86,8.362,9.044v1.286H220.456a4.306,4.306,0,0,0,4.313,3.745,4.879,4.879,0,0,0,4.125-1.853l3.217,2.346a8.7,8.7,0,0,1-7.341,3.557c-5.335,0-8.854-3.9-8.854-9.08m12.6-1.7c-.416-2.043-1.7-3.594-3.935-3.594a4.045,4.045,0,0,0-4.049,3.594Z" transform="translate(-75.271 -16.542)" fill="#0d576a"/>
    <path id="Tracé_227" data-name="Tracé 227" d="M246.044,37.783h4.767l-.038,24.043h-4.73Z" transform="translate(-85.774 -13.172)" fill="#0d576a"/>
    <path id="Tracé_228" data-name="Tracé 228" d="M31.975,47.832H36.7v1.741a6.266,6.266,0,0,1,4.616-2.006,6.087,6.087,0,0,1,5.373,2.649,6.936,6.936,0,0,1,5.713-2.649c3.065,0,6.508,1.589,6.508,7.038V65.237h-4.73V55.248c0-3.026-2.157-3.557-3.254-3.557-1.06,0-3.141.53-3.141,3.557v9.989H43.062V55.248c0-3.026-2.119-3.557-3.217-3.557s-3.14.53-3.14,3.557v9.989h-4.73Z" transform="translate(-11.147 -16.583)" fill="#0d576a"/>
    <path id="Tracé_229" data-name="Tracé 229" d="M5.4,53.46V52.053h8.454l2.021-4.465H5.4V46.151a3.9,3.9,0,0,1,3.9-3.9h8.447V37.783H9.118a8.6,8.6,0,0,0-8.6,8.6v6.853a8.6,8.6,0,0,0,8.6,8.6h8.635V57.362H9.306a3.9,3.9,0,0,1-3.9-3.9" transform="translate(-0.182 -13.172)" fill="#0d576a"/>
    <path id="Tracé_230" data-name="Tracé 230" d="M258.245,56.455V60.92h5.792l2.021-4.465Z" transform="translate(-90.028 -19.681)" fill="#0d576a"/>
    <path id="Tracé_231" data-name="Tracé 231" d="M5.708,21.07a5.862,5.862,0,0,1-4.032-1.163A3.631,3.631,0,0,1,.535,16.8q.023-.384.294-.384H2.455c.18,0,.271.113.271.339a2.159,2.159,0,0,0,.779,1.875,4.028,4.028,0,0,0,2.361.565,4.126,4.126,0,0,0,2.315-.531,1.842,1.842,0,0,0,.78-1.638A2.163,2.163,0,0,0,8.78,16.1a1.815,1.815,0,0,0-.61-.689,5.63,5.63,0,0,0-1.175-.6L3.7,13.436a6.751,6.751,0,0,1-1.705-.993A3.173,3.173,0,0,1,1.067,11.2,4.182,4.182,0,0,1,.784,9.619a3.509,3.509,0,0,1,1.265-2.88,5.764,5.764,0,0,1,3.636-.982,7.705,7.705,0,0,1,2.846.474A3.751,3.751,0,0,1,10.338,7.62a3.368,3.368,0,0,1,.474,2.27q-.045.406-.248.406H8.915a.207.207,0,0,1-.192-.091A.529.529,0,0,1,8.69,9.89a1.762,1.762,0,0,0-.735-1.683,3.887,3.887,0,0,0-2.314-.6,3.51,3.51,0,0,0-2.011.474,1.7,1.7,0,0,0-.7,1.445,1.936,1.936,0,0,0,.192.881,1.959,1.959,0,0,0,.632.7,6.89,6.89,0,0,0,1.208.655l3.275,1.378a6.62,6.62,0,0,1,1.683.96,3.094,3.094,0,0,1,.926,1.23,4.2,4.2,0,0,1,.259,1.672A3.669,3.669,0,0,1,9.808,20a6.393,6.393,0,0,1-4.1,1.073" transform="translate(-0.182 -2.007)" fill="#293b43"/>
    <path id="Tracé_232" data-name="Tracé 232" d="M31.152,21.058a5.846,5.846,0,0,1-4.28-1.4,5.353,5.353,0,0,1-1.412-3.975V11.1a5.346,5.346,0,0,1,1.412-3.986,5.874,5.874,0,0,1,4.28-1.389,5.917,5.917,0,0,1,4.291,1.389A5.32,5.32,0,0,1,36.866,11.1v4.585a5.327,5.327,0,0,1-1.423,3.975,5.888,5.888,0,0,1-4.291,1.4m0-1.9a3.614,3.614,0,0,0,2.665-.9,3.581,3.581,0,0,0,.9-2.643v-4.45a3.575,3.575,0,0,0-.9-2.654,3.643,3.643,0,0,0-2.665-.892,3.614,3.614,0,0,0-2.631.892,3.545,3.545,0,0,0-.915,2.654v4.45a3.551,3.551,0,0,0,.915,2.643,3.585,3.585,0,0,0,2.631.9" transform="translate(-8.876 -1.995)" fill="#293b43"/>
    <path id="Tracé_233" data-name="Tracé 233" d="M57.645,21.058a5.868,5.868,0,0,1-4.224-1.389,5.3,5.3,0,0,1-1.445-4.009V11.12a5.278,5.278,0,0,1,1.457-4.009,5.9,5.9,0,0,1,4.235-1.389,7.568,7.568,0,0,1,3.151.61,4.329,4.329,0,0,1,2.01,1.739,4.068,4.068,0,0,1,.44,2.71A1.033,1.033,0,0,1,63.2,11a.179.179,0,0,1-.18.1H61.326c-.165,0-.24-.083-.225-.249a2.98,2.98,0,0,0-.8-2.383,3.6,3.6,0,0,0-2.608-.847,3.658,3.658,0,0,0-2.643.892,3.458,3.458,0,0,0-.926,2.609v4.54a3.455,3.455,0,0,0,.926,2.608,3.655,3.655,0,0,0,2.643.892,3.781,3.781,0,0,0,2.665-.858,2.616,2.616,0,0,0,.745-2.372c-.015-.165.06-.249.225-.249H63c.15,0,.241.106.271.317a4.372,4.372,0,0,1-.531,2.665,4.479,4.479,0,0,1-1.976,1.762,7.109,7.109,0,0,1-3.117.632" transform="translate(-18.12 -1.995)" fill="#293b43"/>
    <path id="Tracé_234" data-name="Tracé 234" d="M79.6,20.932c-.151,0-.226-.083-.226-.248V6.387c0-.165.075-.249.226-.249H81.3c.15,0,.226.083.226.249v14.3q0,.248-.226.248Z" transform="translate(-27.672 -2.14)" fill="#293b43"/>
    <path id="Tracé_235" data-name="Tracé 235" d="M93.528,18.792c-.151,0-.226-.082-.226-.248V4.246c0-.165.075-.248.226-.248h8.222c.15,0,.225.083.225.248V5.692c0,.166-.076.248-.225.248h-6.3v4.4h5.76c.15,0,.226.083.226.249v1.378q0,.248-.226.248h-5.76V16.85h6.3c.15,0,.225.082.225.248v1.445c0,.166-.076.248-.225.248ZM96.577,2.755c-.076,0-.121-.022-.135-.067a.206.206,0,0,1,.022-.159L97.752.181A.276.276,0,0,1,98,0h1.762c.091,0,.147.031.169.091a.206.206,0,0,1-.057.2L98.2,2.62a.284.284,0,0,1-.249.135Z" transform="translate(-32.526 0)" fill="#293b43"/>
    <path id="Tracé_236" data-name="Tracé 236" d="M118.591,20.932a.219.219,0,0,1-.248-.248V8.08h-4.021c-.15,0-.226-.082-.226-.248V6.387c0-.165.076-.249.226-.249h10.209c.15,0,.226.083.226.249V7.832c0,.166-.076.248-.226.248h-4.02v12.6a.22.22,0,0,1-.249.248Z" transform="translate(-39.775 -2.14)" fill="#293b43"/>
    <path id="Tracé_237" data-name="Tracé 237" d="M138.366,18.792c-.151,0-.226-.082-.226-.248V4.246c0-.165.075-.248.226-.248h8.222c.15,0,.225.083.225.248V5.692c0,.166-.076.248-.225.248h-6.3v4.4h5.76c.15,0,.226.083.226.249v1.378q0,.248-.226.248h-5.76V16.85h6.3c.15,0,.225.082.225.248v1.445c0,.166-.076.248-.225.248Zm3.049-16.036c-.076,0-.12-.022-.135-.067a.205.205,0,0,1,.022-.159L142.59.181A.276.276,0,0,1,142.838,0H144.6c.091,0,.147.031.169.091a.206.206,0,0,1-.057.2L143.042,2.62a.284.284,0,0,1-.249.135Z" transform="translate(-48.157 0)" fill="#293b43"/>
  </g>
</svg>
