<svg id="SIGLE_SEG" data-name="SIGLE SEG" xmlns="http://www.w3.org/2000/svg" xmlns:xlink="http://www.w3.org/1999/xlink" width="280.85" height="288.736" viewBox="0 0 280.85 288.736">
  <defs>
    <clipPath id="clip-path">
      <rect id="Rectangle_265" data-name="Rectangle 265" width="280.85" height="288.736" fill="none"/>
    </clipPath>
  </defs>
  <g id="Groupe_407" data-name="Groupe 407" clip-path="url(#clip-path)">
    <path id="Tracé_238" data-name="Tracé 238" d="M115.931,55.657H36.271c-3.783,9.5-7.908,19.85-7.908,30.693,0,10.1,3.87,19.773,7.177,28.727a74.4,74.4,0,0,0,16.9,1.967h35.71Z" transform="translate(29.566 58.018)" fill="#0d576a"/>
    <path id="Tracé_239" data-name="Tracé 239" d="M274.209,86.756l-2.044-2.044h-58.6v2.044a82.995,82.995,0,0,1-131.8,31.717H6.236a144.391,144.391,0,0,0,265.266-11.4,49.718,49.718,0,0,0,2.706-20.32" transform="translate(6.5 88.305)" fill="#027d6f"/>
    <path id="Tracé_240" data-name="Tracé 240" d="M142.952,0A144.4,144.4,0,0,0,.363,121.644a29.181,29.181,0,0,0,16.666,31.143l34.1,15.563v0a74.383,74.383,0,0,0,13.978,4.747A83.018,83.018,0,0,1,167.491,65.077l25.43-56.191A144.064,144.064,0,0,0,142.952,0" transform="translate(0.001)" fill="#1a748b"/>
    <path id="Tracé_241" data-name="Tracé 241" d="M196.082,100.142,183.7,72.792a29.149,29.149,0,0,0-26.562-17.134h-52.32L77.04,117.043H200.4A50.156,50.156,0,0,0,196.082,100.142Z" transform="translate(80.307 58.019)" fill="#4a9c8b"/>
  </g>
</svg>
